<svg width="40" height="35" viewBox="0 0 40 35" fill="none" xmlns="http://www.w3.org/2000/svg">
<g id="fa-solid:arrow-up" clip-path="url(#clip0_125_69)">
<path id="Vector" d="M22.6172 32.2734L20.8828 34.0078C20.1484 34.7422 18.9609 34.7422 18.2344 34.0078L3.04687 18.8281C2.3125 18.0938 2.3125 16.9063 3.04687 16.1797L18.2266 0.999999C18.9609 0.265624 20.1484 0.265624 20.875 0.999999L22.6094 2.73437C23.3516 3.47656 23.3359 4.6875 22.5781 5.41406L13.1719 14.375L35.625 14.375C36.6641 14.375 37.5 15.2109 37.5 16.25L37.5 18.75C37.5 19.7891 36.6641 20.625 35.625 20.625L13.1719 20.625L22.5859 29.5937C23.3516 30.3203 23.3672 31.5312 22.6172 32.2734Z" fill="#E2E8F0"/>
</g>
<defs>
<clipPath id="clip0_125_69">
<rect width="35" height="40" fill="white" transform="translate(0 35) rotate(-90)"/>
</clipPath>
</defs>
</svg>
