<svg width="32" height="26" viewBox="0 0 32 26" fill="none" xmlns="http://www.w3.org/2000/svg">
<path fill-rule="evenodd" clip-rule="evenodd" d="M30.7083 1.41666C31.2935 2.0026 31.6222 2.79687 31.6222 3.625C31.6222 4.45312 31.2935 5.24739 30.7083 5.83333L11.9583 24.5833C11.3723 25.1685 10.5781 25.4972 9.74993 25.4972C8.9218 25.4972 8.12754 25.1685 7.5416 24.5833L1.2916 18.3333C0.739597 17.7409 0.439083 16.9574 0.453368 16.1478C0.467652 15.3382 0.795619 14.5658 1.36817 13.9932C1.94073 13.4207 2.71316 13.0927 3.52275 13.0784C4.33234 13.0641 5.11587 13.3647 5.70826 13.9167L9.74993 17.9583L26.2916 1.41666C26.8775 0.831453 27.6718 0.502747 28.4999 0.502747C29.3281 0.502747 30.1223 0.831453 30.7083 1.41666Z" fill="#F8FAFC"/>
</svg>
