<?xml version="1.0" encoding="utf-8"?><svg xmlns="http://www.w3.org/2000/svg" xmlns:xlink="http://www.w3.org/1999/xlink"><symbol viewBox="0 0 28 28" id="call" xmlns="http://www.w3.org/2000/svg"><path d="M28 19.45v6.84c0 .476-.192.931-.534 1.262a1.582 1.582 0 01-1.17.446 27.438 27.438 0 01-18.257-8.036A27.438 27.438 0 01.001 1.703 1.58 1.58 0 01.448.533 1.76 1.76 0 011.71 0h6.84a1.69 1.69 0 011.662 1.442l.904 6.324a1.688 1.688 0 01-.475 1.425l-2.683 2.683a.564.564 0 00-.094.683 22.965 22.965 0 007.578 7.578c.223.129.504.09.684-.094l2.682-2.682a1.686 1.686 0 011.426-.475l6.324.903A1.689 1.689 0 0128 19.45z"/></symbol><symbol viewBox="0 0 34 34" id="close" xmlns="http://www.w3.org/2000/svg"><g clip-path="url(#bclip0_191_39)"><path fill-rule="evenodd" clip-rule="evenodd" d="M17 20.005l7.512 7.514a2.126 2.126 0 003.006-3.006L20.003 17l7.514-7.513a2.124 2.124 0 10-3.006-3.004L17 13.995 9.487 6.483a2.125 2.125 0 10-3.006 3.003L13.996 17l-7.514 7.513a2.126 2.126 0 103.007 3.006l7.51-7.516v.002z"/></g><defs><clipPath id="bclip0_191_39"><path d="M0 0h34v34H0z"/></clipPath></defs></symbol><symbol viewBox="0 0 40 35" id="next" xmlns="http://www.w3.org/2000/svg"><g clip-path="url(#cclip0_125_65)"><path d="M17.383 32.273l1.734 1.735a1.867 1.867 0 002.649 0l15.187-15.18a1.867 1.867 0 000-2.648L21.773 1a1.867 1.867 0 00-2.648 0l-1.734 1.734a1.877 1.877 0 00.03 2.68l9.407 8.961H4.375A1.87 1.87 0 002.5 16.25v2.5a1.87 1.87 0 001.875 1.875h22.453l-9.414 8.969a1.864 1.864 0 00-.031 2.68z"/></g><defs><clipPath id="cclip0_125_65"><path transform="matrix(0 -1 -1 0 40 35)" d="M0 0h35v40H0z"/></clipPath></defs></symbol><symbol viewBox="0 0 32 22" id="next2" xmlns="http://www.w3.org/2000/svg"><path fill-rule="evenodd" clip-rule="evenodd" d="M22.317 21.563l9.257-9.507a1.522 1.522 0 000-2.112L22.317.438a1.428 1.428 0 00-2.057 0 1.522 1.522 0 000 2.112l6.774 6.956H1.454C.652 9.506 0 10.175 0 11s.651 1.494 1.455 1.494h25.579L20.26 19.45a1.522 1.522 0 000 2.113 1.428 1.428 0 002.057 0z"/></symbol><symbol viewBox="0 0 40 35" id="prew" xmlns="http://www.w3.org/2000/svg"><g clip-path="url(#eclip0_125_69)"><path d="M22.617 32.273l-1.734 1.735a1.867 1.867 0 01-2.649 0L3.047 18.828a1.867 1.867 0 010-2.648L18.227 1a1.867 1.867 0 012.648 0l1.734 1.734a1.877 1.877 0 01-.03 2.68l-9.407 8.961h22.453A1.87 1.87 0 0137.5 16.25v2.5a1.87 1.87 0 01-1.875 1.875H13.172l9.414 8.969c.766.726.781 1.937.031 2.68z"/></g><defs><clipPath id="eclip0_125_69"><path transform="rotate(-90 17.5 17.5)" d="M0 0h35v40H0z"/></clipPath></defs></symbol><symbol viewBox="0 0 32 22" id="prew2" xmlns="http://www.w3.org/2000/svg"><path fill-rule="evenodd" clip-rule="evenodd" d="M.426 12.056a1.522 1.522 0 010-2.112L9.683.438a1.428 1.428 0 012.057 0 1.522 1.522 0 010 2.112L4.966 9.506h25.58c.803 0 1.454.669 1.454 1.494s-.651 1.494-1.454 1.494H4.966l6.774 6.956c.568.583.568 1.53 0 2.113a1.428 1.428 0 01-2.057 0L.426 12.056z"/></symbol><symbol viewBox="0 0 32 26" id="thanks" xmlns="http://www.w3.org/2000/svg"><path fill-rule="evenodd" clip-rule="evenodd" d="M30.708 1.417a3.125 3.125 0 010 4.416l-18.75 18.75a3.125 3.125 0 01-4.416 0l-6.25-6.25a3.125 3.125 0 014.416-4.416l4.042 4.041L26.292 1.417a3.125 3.125 0 014.416 0z"/></symbol><symbol viewBox="0 0 28 28" id="wa" xmlns="http://www.w3.org/2000/svg"><path fill-rule="evenodd" clip-rule="evenodd" d="M14 0C6.262 0 0 6.258 0 14c0 2.92.89 5.62 2.472 7.94a.7.7 0 01.087.602L1.137 27.3l4.66-1.608a.7.7 0 01.602.077 13.917 13.917 0 007.6 2.231C21.743 28 28 21.742 28 14S21.742 0 14 0zM8.27 6.103l2.548 4.211-1.06 1.05a.7.7 0 00-.11.842c1.62 2.804 3.537 4.985 6.223 6.17a.7.7 0 00.777-.143l1.127-1.126 4.112 2.57c-.455 1.025-1.049 1.635-1.728 1.99-.787.412-1.747.49-2.844.263-2.193-.455-4.841-2.178-7-4.386-2.158-2.208-3.829-4.893-4.254-7.077-.213-1.092-.12-2.033.284-2.778.347-.642.937-1.192 1.925-1.586z"/></symbol></svg>