<svg width="40" height="35" viewBox="0 0 40 35" fill="none" xmlns="http://www.w3.org/2000/svg">
<g id="fa-solid:arrow-up" clip-path="url(#clip0_125_65)">
<path id="Vector" d="M17.3828 32.2734L19.1172 34.0078C19.8516 34.7422 21.0391 34.7422 21.7656 34.0078L36.9531 18.8281C37.6875 18.0938 37.6875 16.9063 36.9531 16.1797L21.7734 0.999999C21.0391 0.265624 19.8516 0.265624 19.125 0.999999L17.3906 2.73437C16.6484 3.47656 16.6641 4.6875 17.4219 5.41406L26.8281 14.375L4.375 14.375C3.33594 14.375 2.5 15.2109 2.5 16.25L2.5 18.75C2.5 19.7891 3.33594 20.625 4.375 20.625L26.8281 20.625L17.4141 29.5937C16.6484 30.3203 16.6328 31.5312 17.3828 32.2734Z" fill="#2563EB"/>
</g>
<defs>
<clipPath id="clip0_125_65">
<rect width="35" height="40" fill="white" transform="matrix(4.37114e-08 -1 -1 -4.37114e-08 40 35)"/>
</clipPath>
</defs>
</svg>
